<svg id="ef8om3slEe41" xmlns="http://www.w3.org/2000/svg" xmlns:xlink="http://www.w3.org/1999/xlink" viewBox="0 0 800 800" shape-rendering="geometricPrecision" text-rendering="geometricPrecision" style="background-color:#2a3451"><defs><linearGradient id="ef8om3slEe46-stroke" x1="0" y1="0.5" x2="1" y2="0.5" spreadMethod="pad" gradientUnits="objectBoundingBox" gradientTransform="translate(0 0)"><stop id="ef8om3slEe46-stroke-0" offset="57%" stop-color="#3e59a1"/><stop id="ef8om3slEe46-stroke-1" offset="100%" stop-color="rgba(62,89,161,0)"/></linearGradient><radialGradient id="ef8om3slEe49-fill" cx="0" cy="0" r="0.500001" spreadMethod="pad" gradientUnits="objectBoundingBox" gradientTransform="translate(0.5 0.5)"><stop id="ef8om3slEe49-fill-0" offset="67.5033%" stop-color="#fff"/><stop id="ef8om3slEe49-fill-1" offset="100%" stop-color="#000"/></radialGradient><linearGradient id="ef8om3slEe414-fill" x1="0.628804" y1="0.816987" x2="0.517271" y2="0.421845" spreadMethod="pad" gradientUnits="objectBoundingBox" gradientTransform="translate(0 0)"><stop id="ef8om3slEe414-fill-0" offset="0%" stop-color="#4557a1"/><stop id="ef8om3slEe414-fill-1" offset="100%" stop-color="#431d7b"/></linearGradient><linearGradient id="ef8om3slEe419-fill" x1="0.5" y1="0.227855" x2="0.5" y2="1" spreadMethod="pad" gradientUnits="objectBoundingBox" gradientTransform="translate(0 0)"><stop id="ef8om3slEe419-fill-0" offset="0%" stop-color="#faf8f1"/><stop id="ef8om3slEe419-fill-1" offset="100%" stop-color="rgba(250,248,241,0)"/></linearGradient><linearGradient id="ef8om3slEe422-fill" x1="0.628804" y1="0.816987" x2="0.691107" y2="0.402938" spreadMethod="pad" gradientUnits="objectBoundingBox" gradientTransform="translate(0 0)"><stop id="ef8om3slEe422-fill-0" offset="0%" stop-color="#4557a1"/><stop id="ef8om3slEe422-fill-1" offset="100%" stop-color="#431d7b"/></linearGradient><linearGradient id="ef8om3slEe427-fill" x1="0.5" y1="0.227855" x2="0.5" y2="1" spreadMethod="pad" gradientUnits="objectBoundingBox" gradientTransform="translate(0 0)"><stop id="ef8om3slEe427-fill-0" offset="0%" stop-color="#faf8f1"/><stop id="ef8om3slEe427-fill-1" offset="100%" stop-color="rgba(250,248,241,0)"/></linearGradient><radialGradient id="ef8om3slEe428-fill" cx="0" cy="0" r="1.268412" spreadMethod="repeat" gradientUnits="objectBoundingBox" gradientTransform="matrix(0.464119 0.885773 -0.321528 0.168472 0.532619 0.013943)"><stop id="ef8om3slEe428-fill-0" offset="0%" stop-color="#2e0837"/><stop id="ef8om3slEe428-fill-1" offset="83%" stop-color="#891162"/><stop id="ef8om3slEe428-fill-2" offset="100%" stop-color="#2e0837"/></radialGradient><linearGradient id="ef8om3slEe429-fill" x1="0.59745" y1="-0.085988" x2="0.291905" y2="1.335902" spreadMethod="pad" gradientUnits="objectBoundingBox" gradientTransform="translate(0 0)"><stop id="ef8om3slEe429-fill-0" offset="0%" stop-color="#d11b7e"/><stop id="ef8om3slEe429-fill-1" offset="100%" stop-color="#f33780"/></linearGradient><filter id="ef8om3slEe431-filter" x="-150%" width="400%" y="-150%" height="400%"><feGaussianBlur id="ef8om3slEe431-filter-blur-0" stdDeviation="24,24" result="result"/></filter><linearGradient id="ef8om3slEe431-fill" x1="0.801711" y1="0.165879" x2="0.35349" y2="0.475637" spreadMethod="pad" gradientUnits="objectBoundingBox" gradientTransform="translate(0 0)"><stop id="ef8om3slEe431-fill-0" offset="0%" stop-color="#fff"/><stop id="ef8om3slEe431-fill-1" offset="100%" stop-color="rgba(255,255,255,0)"/></linearGradient></defs><g mask="url(#ef8om3slEe48)"><line id="ef8om3slEe43" x1="-124.075062" y1="-0.576697" x2="463.850246" y2="1.857614" transform="matrix(.707107-.707107 0.707107 0.707107 367.835193 778.84211)" fill="none" stroke="#3e59a1" stroke-width="12" stroke-linecap="round" stroke-linejoin="round" stroke-dashoffset="300" stroke-dasharray="287.93,300"/><line id="ef8om3slEe44" x1="-124.075062" y1="-0.576697" x2="463.850246" y2="1.857614" transform="matrix(.707107-.707107 0.707107 0.707107 592.919342 664.300027)" fill="none" stroke="#3e59a1" stroke-width="12" stroke-linecap="round" stroke-linejoin="round" stroke-dashoffset="300" stroke-dasharray="287.93,300"/><line id="ef8om3slEe45" x1="-124.075062" y1="-0.576697" x2="463.850246" y2="1.857614" transform="matrix(.707107-.707107 0.707107 0.707107 321.263352 140.372184)" fill="none" stroke="#3e59a1" stroke-width="12" stroke-linecap="round" stroke-linejoin="round" stroke-dashoffset="300" stroke-dasharray="287.93,300"/><line id="ef8om3slEe46" x1="-124.075062" y1="-0.576697" x2="463.850246" y2="1.857614" transform="matrix(.707107-.707107 0.707107 0.707107-108.215995 490.459961)" opacity="0.56" fill="none" stroke="url(#ef8om3slEe46-stroke)" stroke-width="12" stroke-linecap="round" stroke-linejoin="round" stroke-dashoffset="300" stroke-dasharray="287.93,300"/><line id="ef8om3slEe47" x1="-124.075062" y1="-0.576697" x2="463.850246" y2="1.857614" transform="matrix(.707107-.707107 0.707107 0.707107 48.192604 218.847547)" fill="none" stroke="#3e59a1" stroke-width="12" stroke-linecap="round" stroke-linejoin="round" stroke-dashoffset="300" stroke-dasharray="287.93,300"/><mask id="ef8om3slEe48" mask-type="luminance" x="-150%" y="-150%" height="400%" width="400%"><rect width="800" height="800" rx="0" ry="0" fill="url(#ef8om3slEe49-fill)" stroke-width="0"/></mask></g><g id="ef8om3slEe410" transform="translate(.000012 0)"><g id="ef8om3slEe411" transform="translate(-34.839755 21.185504)"><g transform="translate(-112.992315-114.396094)"><rect width="60" height="57.135962" rx="0" ry="0" transform="matrix(-2.209844 2.209844 0-1.015122 542.642312 478.060509)" fill="#19173a" stroke-width="0"/><rect width="60" height="60" rx="0" ry="0" transform="matrix(.866025 0.5-1.717925 1.717925 461.180093 419.561204)" fill="url(#ef8om3slEe414-fill)" stroke-width="0"/><rect width="60" height="57.078947" rx="0" ry="0" transform="matrix(.866025 0.5 0 1.016136 358.115625 522.625668)" fill="#4e327a" stroke-width="0"/><rect width="32.238615" height="30.669096" rx="0" ry="0" transform="matrix(.866025 0.5 0 1.016136 370.136659 542.984019)" fill="#fc9103" stroke-width="0"/></g><g id="ef8om3slEe417" transform="matrix(.425686 0.425686-.425686 0.425686 391.620649 139.214082)"><path d="M-50.659395,0c0-27.978411,22.680984-50.659395,50.659395-50.659395s50.659395,22.680984,50.659395,50.659395C50.659395,58.361925,0,138.392035,0,138.392035s-50.659395-81.026028-50.659395-138.392035Z" transform="translate(227.134949 627.174961)" fill="#fcc903" stroke-width="0"/><path d="M-50.659395,0c0-27.978411,22.680984-50.659395,50.659395-50.659395s50.659395,22.680984,50.659395,50.659395C50.659395,58.361925,0,169.163095,0,169.163095s-50.659395-111.797088-50.659395-169.163095Z" transform="matrix(.51915 0 0 0.51915 227.134949 627.174961)" fill="url(#ef8om3slEe419-fill)" stroke-width="0"/></g><g transform="translate(20.007685-36.396094)"><rect width="60" height="57.135962" rx="0" ry="0" transform="matrix(-1.718071 1.718071 0-1.015122 513.141617 507.561204)" fill="#19173a" stroke-width="0"/><rect width="60" height="60" rx="0" ry="0" transform="matrix(.866025 0.5-1.717925 1.717925 461.180093 419.561204)" fill="url(#ef8om3slEe422-fill)" stroke-width="0"/><rect width="60" height="57.078947" rx="0" ry="0" transform="matrix(.866025 0.5 0 1.016136 358.115625 522.625668)" fill="#4e327a" stroke-width="0"/><rect width="32.238615" height="30.669096" rx="0" ry="0" transform="matrix(.866025 0.5 0 1.016136 370.136659 542.984019)" fill="#fc9103" stroke-width="0"/></g><g id="ef8om3slEe425" transform="matrix(.425686 0.425686-.425686 0.425686 524.620649 217.214038)"><path d="M-50.659395,0c0-27.978411,22.680984-50.659395,50.659395-50.659395s50.659395,22.680984,50.659395,50.659395C50.659395,58.361925,0,138.392035,0,138.392035s-50.659395-81.026028-50.659395-138.392035Z" transform="translate(227.134949 627.174961)" fill="#fcc903" stroke-width="0"/><path d="M-50.659395,0c0-27.978411,22.680984-50.659395,50.659395-50.659395s50.659395,22.680984,50.659395,50.659395C50.659395,58.361925,0,169.163095,0,169.163095s-50.659395-111.797088-50.659395-169.163095Z" transform="matrix(.51915 0 0 0.51915 227.134949 627.174961)" fill="url(#ef8om3slEe427-fill)" stroke-width="0"/></g><path id="ef8om3slEe428" d="M283.865715,16.615256c9.047002,5.094374,36.575752,46.747067,37.149265,47.783764L533.2619,432.02147c2.17336,3.61028,3.42343,7.83932,3.42343,12.36034c0,13.25483-10.74517,24-24,24-4.68405,0-9.05469-1.34186-12.74848-3.66214L312.74842,352.9921c-3.69378-2.32026-8.0644-3.6621-12.74842-3.6621s-9.05458,1.34183-12.74834,3.66205L100.06301,464.71975c-3.69377,2.32023-8.06436,3.66206-12.74835,3.66206-6.517407,0-12.428055-2.597853-16.752922-6.814538-4.470866-4.359033-33.606822-43.054196-34.528817-46.969004L283.865715,16.615256Z" transform="matrix(.836435 0.482916-.600267 0.600267 392.829979 37.427352)" fill="url(#ef8om3slEe428-fill)" stroke-width="0"/><path id="ef8om3slEe429" d="M300,52c9.04712,0,16.92503,5.00593,21.01498,12.39902L533.2619,432.02147c2.17336,3.61028,3.42343,7.83932,3.42343,12.36034c0,13.25483-10.74517,24-24,24-4.68405,0-9.05469-1.34186-12.74848-3.66214L312.74842,352.9921c-3.69378-2.32026-8.0644-3.6621-12.74842-3.6621s-9.05458,1.34183-12.74834,3.66205L100.06301,464.71975c-3.69377,2.32023-8.06436,3.66206-12.74835,3.66206-13.25483,0-24-10.74517-24-24c0-4.52098,1.25006-8.74999,3.42338-12.36026L278.98507,64.39891c4.08997-7.39303,11.96785-12.39892,21.01492-12.39892L300,52Z" transform="matrix(.836435 0.482916-.600267 0.600267 392.829979-2.572648)" fill="url(#ef8om3slEe429-fill)" stroke-width="0"/><g mask="url(#ef8om3slEe432)"><path d="M301.501911,491.19776L679.041884,103.334345l-63.430883,582.12357L301.501911,491.19776Z" transform="translate(.000003 0.000002)" filter="url(#ef8om3slEe431-filter)" fill="url(#ef8om3slEe431-fill)" stroke-width="1.6"/><mask id="ef8om3slEe432" mask-type="luminance" x="-150%" y="-150%" height="400%" width="400%"><path id="ef8om3slEe433" d="M300,52c9.04712,0,16.92503,5.00593,21.01498,12.39902L533.2619,432.02147c2.17336,3.61028,3.42343,7.83932,3.42343,12.36034c0,13.25483-10.74517,24-24,24-4.68405,0-9.05469-1.34186-12.74848-3.66214L312.74842,352.9921c-3.69378-2.32026-8.0644-3.6621-12.74842-3.6621s-9.05458,1.34183-12.74834,3.66205L100.06301,464.71975c-3.69377,2.32023-8.06436,3.66206-12.74835,3.66206-13.25483,0-24-10.74517-24-24c0-4.52098,1.25006-8.74999,3.42338-12.36026L278.98507,64.39891c4.08997-7.39303,11.96785-12.39892,21.01492-12.39892L300,52Z" transform="matrix(.836435 0.482916-.600267 0.600267 392.829979-2.572648)" fill="#fff" stroke-width="0"/></mask></g></g></g>
<script><![CDATA[
(function(s,i,u,o,c,w,d,t,n,x,e,p,a,b){(a=Array.from(d.querySelectorAll('svg#' + i.root)).filter(n=> !n.svgatorPlayer)[0]||{}).svgatorPlayer={ready:(function(a){b=[];return function(c){return c?(b.push(c),a.svgatorPlayer):b}})(a)};w[o]=w[o]||{};w[o][s]=w[o][s]||[];w[o][s].push(i);e=d.createElementNS(n,t);e.async=true;e.setAttributeNS(x,'href',[u,s,'.','j','s','?','v','=',c].join(''));e.setAttributeNS(null,'src',[u,s,'.','j','s','?','v','=',c].join(''));p=d.getElementsByTagName(t)[0];p.parentNode.insertBefore(e,p);})('91c80d77',{"root":"ef8om3slEe41","version":"2022-05-04","animations":[{"elements":{"ef8om3slEe43":{"stroke-dashoffset":[{"t":0,"v":300},{"t":1600,"v":3827.58}]},"ef8om3slEe44":{"stroke-dashoffset":[{"t":0,"v":300},{"t":1600,"v":3827.58}]},"ef8om3slEe45":{"stroke-dashoffset":[{"t":0,"v":300},{"t":1600,"v":3827.58}]},"ef8om3slEe46":{"stroke-dashoffset":[{"t":0,"v":300},{"t":1600,"v":3827.58}]},"ef8om3slEe47":{"stroke-dashoffset":[{"t":0,"v":300},{"t":1600,"v":3827.58}]},"ef8om3slEe410":{"transform":{"data":{"t":{"x":-415.961455,"y":-358.85023}},"keys":{"o":[{"t":0,"v":{"x":415.961467,"y":358.85023,"type":"corner"},"e":[0.455,0.03,0.515,0.955]},{"t":500,"v":{"x":451.967238,"y":321.212173,"type":"corner"},"e":[0.42,0,0.58,1]},{"t":1600,"v":{"x":415.961467,"y":358.85023,"type":"corner","start":{"x":415.961467,"y":358.85023},"end":{"x":415.961467,"y":358.85023}},"e":[0.42,0,0.58,1]}]}}},"ef8om3slEe411":{"transform":{"data":{"t":{"x":-429.650021,"y":-352.16511}},"keys":{"o":[{"t":0,"v":{"x":394.810266,"y":373.350614,"type":"corner"},"e":[0.42,0,0.58,1]},{"t":100,"v":{"x":397.643481,"y":375.898385,"type":"corner"},"e":[0.42,0,0.58,1]},{"t":300,"v":{"x":393.715306,"y":372.16663,"type":"corner"},"e":[0.42,0,0.58,1]},{"t":500,"v":{"x":396.170408,"y":374.228916,"type":"corner"},"e":[0.42,0,0.58,1]},{"t":600,"v":{"x":393.715318,"y":373.350614,"type":"corner"},"e":[0.42,0,0.58,1]},{"t":800,"v":{"x":394.810254,"y":375.505569,"type":"corner"},"e":[0.42,0,0.58,1]},{"t":1000,"v":{"x":392.438652,"y":372.16663,"type":"corner"},"e":[0.42,0,0.58,1]},{"t":1100,"v":{"x":396.17042,"y":375.505569,"type":"corner"},"e":[0.42,0,0.58,1]},{"t":1200,"v":{"x":392.438664,"y":373.350614,"type":"corner"},"e":[0.42,0,0.58,1]},{"t":1300,"v":{"x":396.170408,"y":372.854059,"type":"corner"},"e":[0.42,0,0.58,1]},{"t":1400,"v":{"x":391.751224,"y":371.479202,"type":"corner"},"e":[0.42,0,0.58,1]},{"t":1600,"v":{"x":394.810266,"y":373.350614,"type":"corner","start":{"x":394.810266,"y":373.350614},"end":{"x":394.810266,"y":373.350614}},"e":[0.77,0,0.175,1]}]}}},"ef8om3slEe417":{"transform":{"data":{"o":{"x":242.894165,"y":481.316885,"type":"corner"},"r":45,"t":{"x":-227.134897,"y":-576.515574}},"keys":{"s":[{"t":0,"v":{"x":0.602011,"y":0.602011},"e":[0.645,0.045,0.355,1]},{"t":100,"v":{"x":0.602011,"y":0.718113},"e":[0.645,0.045,0.355,1]},{"t":300,"v":{"x":0.602011,"y":0.523337},"e":[0.645,0.045,0.355,1]},{"t":500,"v":{"x":0.602011,"y":0.632515},"e":[0.645,0.045,0.355,1]},{"t":600,"v":{"x":0.602011,"y":0.579077},"e":[0.645,0.045,0.355,1]},{"t":800,"v":{"x":0.602011,"y":0.673252},"e":[0.645,0.045,0.355,1]},{"t":1000,"v":{"x":0.602011,"y":0.579077},"e":[0.645,0.045,0.355,1]},{"t":1100,"v":{"x":0.602011,"y":0.673252},"e":[0.645,0.045,0.355,1]},{"t":1200,"v":{"x":0.602011,"y":0.610635},"e":[0.645,0.045,0.355,1]},{"t":1300,"v":{"x":0.602011,"y":0.579077},"e":[0.645,0.045,0.355,1]},{"t":1400,"v":{"x":0.602011,"y":0.673251},"e":[0.645,0.045,0.355,1]},{"t":1600,"v":{"x":0.602011,"y":0.602011},"e":[0.645,0.045,0.355,1]}]}}},"ef8om3slEe425":{"transform":{"data":{"o":{"x":375.894165,"y":559.316841,"type":"corner"},"r":45,"t":{"x":-227.134897,"y":-576.515574}},"keys":{"s":[{"t":0,"v":{"x":0.602011,"y":0.602011},"e":[0.645,0.045,0.355,1]},{"t":100,"v":{"x":0.602011,"y":0.718113},"e":[0.645,0.045,0.355,1]},{"t":300,"v":{"x":0.602011,"y":0.523337},"e":[0.645,0.045,0.355,1]},{"t":500,"v":{"x":0.602011,"y":0.632515},"e":[0.645,0.045,0.355,1]},{"t":600,"v":{"x":0.602011,"y":0.579077},"e":[0.645,0.045,0.355,1]},{"t":800,"v":{"x":0.602011,"y":0.673252},"e":[0.645,0.045,0.355,1]},{"t":1000,"v":{"x":0.602011,"y":0.579077},"e":[0.645,0.045,0.355,1]},{"t":1100,"v":{"x":0.602011,"y":0.673252},"e":[0.645,0.045,0.355,1]},{"t":1200,"v":{"x":0.602011,"y":0.610635},"e":[0.645,0.045,0.355,1]},{"t":1300,"v":{"x":0.602011,"y":0.579077},"e":[0.645,0.045,0.355,1]},{"t":1400,"v":{"x":0.602011,"y":0.673251},"e":[0.645,0.045,0.355,1]},{"t":1600,"v":{"x":0.602011,"y":0.602011},"e":[0.645,0.045,0.355,1]}]}}},"ef8om3slEe428":{"transform":{"data":{"o":{"x":487.576473,"y":338.486165,"type":"corner"},"r":30,"k":{"x":-15,"y":0},"t":{"x":-299.999995,"y":-260.190899}},"keys":{"s":[{"t":0,"v":{"x":0.965832,"y":0.81998},"e":[0.455,0.03,0.515,0.955]},{"t":300,"v":{"x":0.805826,"y":0.81998}},{"t":500,"v":{"x":0.805826,"y":0.81998}},{"t":1600,"v":{"x":0.965832,"y":0.81998}}]}}},"ef8om3slEe429":{"transform":{"data":{"o":{"x":487.576473,"y":298.486165,"type":"corner"},"r":30,"k":{"x":-15,"y":0},"t":{"x":-299.999995,"y":-260.190899}},"keys":{"s":[{"t":0,"v":{"x":0.965832,"y":0.81998},"e":[0.455,0.03,0.515,0.955]},{"t":300,"v":{"x":0.805827,"y":0.81998}},{"t":500,"v":{"x":0.805827,"y":0.81998}},{"t":1600,"v":{"x":0.965832,"y":0.81998}}]}}},"ef8om3slEe433":{"transform":{"data":{"o":{"x":487.576473,"y":298.486165,"type":"corner"},"r":30,"k":{"x":-15,"y":0},"t":{"x":-299.999995,"y":-260.190899}},"keys":{"s":[{"t":0,"v":{"x":0.965832,"y":0.81998},"e":[0.455,0.03,0.515,0.955]},{"t":300,"v":{"x":0.805827,"y":0.81998}},{"t":500,"v":{"x":0.805827,"y":0.81998}},{"t":1600,"v":{"x":0.965832,"y":0.81998}}]}}}},"s":"MDBA1ZDhiMzI3NBDg1ODI3MTg0EQjc5N2Y3ZTMTyNGE0MTQ2NDCA0MDNjMzI3NVDc5ODI3NTczSODQ3OTdmN2UXzMjRhVTQxM2HMzMjc5ODQ3NVTgyNzE4NDc5RN2Y3ZTgzMzIR0YTQwUzNjMzJI3Njc5N2M3YHzMyWDRhNDEzRYzMyNzE3YzgW0NzVWODI3ZTAcxODQ3NTMyNLGE3NjcxVjdjVODM3NTNjMzIN4MzgwNzU3NTBc0MzI0YTQxMF2MzMjc2ODA4CMzMyNGE0MTQJwNDA4ZA|"}],"options":"MDHAxMDgyMjk3YATdiNjg3OTdiUMjlDNDEyOTcMzNzY2ODZiMjPk4NA|"},'https://cdn.svgator.com/ply/','__SVGATOR_PLAYER__','2022-05-04',window,document,'script','http://www.w3.org/2000/svg','http://www.w3.org/1999/xlink')
]]></script>
</svg>
